<?xml version="1.0" encoding="UTF-8" standalone="no"?>
<svg
   xmlns:dc="http://purl.org/dc/elements/1.1/"
   xmlns:cc="http://creativecommons.org/ns#"
   xmlns:rdf="http://www.w3.org/1999/02/22-rdf-syntax-ns#"
   xmlns:svg="http://www.w3.org/2000/svg"
   xmlns="http://www.w3.org/2000/svg"
   xmlns:sodipodi="http://sodipodi.sourceforge.net/DTD/sodipodi-0.dtd"
   xmlns:inkscape="http://www.inkscape.org/namespaces/inkscape"
   version="1.1"
   width="132"
   height="131"
   id="svg3682"
   sodipodi:docname="采姿美LOGO1.svg"
   inkscape:version="0.92.1 r15371">
  <metadata
     id="metadata3688">
    <rdf:RDF>
      <cc:Work
         rdf:about="">
        <dc:format>image/svg+xml</dc:format>
        <dc:type
           rdf:resource="http://purl.org/dc/dcmitype/StillImage" />
        <dc:title></dc:title>
      </cc:Work>
    </rdf:RDF>
  </metadata>
  <defs
     id="defs3686" />
  <sodipodi:namedview
     pagecolor="#777777"
     bordercolor="#666666"
     borderopacity="1"
     objecttolerance="10"
     gridtolerance="10"
     guidetolerance="10"
     inkscape:pageopacity="0"
     inkscape:pageshadow="2"
     inkscape:window-width="1366"
     inkscape:window-height="706"
     id="namedview3684"
     showgrid="false"
     inkscape:zoom="0.61528245"
     inkscape:cx="297.63779"
     inkscape:cy="550.96647"
     inkscape:window-x="-8"
     inkscape:window-y="-8"
     inkscape:window-maximized="1"
     inkscape:current-layer="svg3682" />
  <path
     d="M 44.694522,3.8536373 V 44.642437 H 3.1539226 c -1.4173,0 -2.83469996,1.4174 -2.83469996,2.8347 l -2e-4,35.4574 c 0,1.4174 1.41729996,2.8347 2.83829996,2.8347 H 44.411022 l 0.2835,9.2525 c 35.852301,-22.9413 26.398501,-71.1014 0.9295,-93.2450997 -0.5573,0.4865 -0.889,1.1841 -0.9295,2.077 z m 0,99.6185027 C 79.031123,92.112337 102.11822,70.377337 116.95532,44.642437 h 11.5293 c 1.4173,0 2.8157,1.3133 2.8157,2.7414 v 35.5615 c 0.019,1.4066 -1.3984,2.8239 -2.8157,2.8239 H 86.944323 v 42.039503 c 0,1.4173 -1.4173,2.8346 -2.8346,2.8346 H 47.529122 c -1.4173,0 -2.8346,-1.4173 -2.8346,-2.8346 z M 91.865023,0.17423734 c -7.8259,0 -14.1733,6.34569996 -14.1733,14.17319966 0,7.8276 6.3474,14.1733 14.1733,14.1733 7.8259,0 14.173197,-6.3457 14.173197,-14.1733 0,-7.8274997 -6.347297,-14.17319966 -14.173197,-14.17319966 z"
     style="fill:#777777;fill-rule:evenodd"
     id="path3680"
     inkscape:connector-curvature="0" />
  <path
     inkscape:connector-curvature="0"
     id="path3723"
     style="fill:#777777;fill-rule:evenodd"
     d="M 44.694522,3.8536373 V 44.642437 H 3.1539226 c -1.4173,0 -2.83469996,1.4174 -2.83469996,2.8347 l -2e-4,35.4574 c 0,1.4174 1.41729996,2.8347 2.83829996,2.8347 H 44.411022 l 0.2835,9.2525 c 35.852301,-22.9413 26.398501,-71.1014 0.9295,-93.2450997 -0.5573,0.4865 -0.889,1.1841 -0.9295,2.077 z m 0,99.6185027 C 79.031123,92.112337 102.11822,70.377337 116.95532,44.642437 h 11.5293 c 1.4173,0 2.8157,1.3133 2.8157,2.7414 v 35.5615 c 0.019,1.4066 -1.3984,2.8239 -2.8157,2.8239 H 86.944323 v 42.039503 c 0,1.4173 -1.4173,2.8346 -2.8346,2.8346 H 47.529122 c -1.4173,0 -2.8346,-1.4173 -2.8346,-2.8346 z M 91.865023,0.17423734 c -7.8259,0 -14.1733,6.34569996 -14.1733,14.17319966 0,7.8276 6.3474,14.1733 14.1733,14.1733 7.8259,0 14.173197,-6.3457 14.173197,-14.1733 0,-7.8274997 -6.347297,-14.17319966 -14.173197,-14.17319966 z" />
</svg>